<?xml version="1.0" standalone="no"?>
<!DOCTYPE svg PUBLIC "-//W3C//DTD SVG 20010904//EN"
 "http://www.w3.org/TR/2001/REC-SVG-20010904/DTD/svg10.dtd">
<svg version="1.0" xmlns="http://www.w3.org/2000/svg"
 width="500.000000pt" height="500.000000pt" viewBox="0 0 500.000000 500.000000"
 preserveAspectRatio="xMidYMid meet">
<metadata>
Created by potrace 1.14, written by Peter Selinger 2001-2017
</metadata>
<g transform="translate(0.000000,500.000000) scale(0.100000,-0.100000)"
fill="#000000" stroke="none">
<path d="M1280 4259 c-66 -30 -103 -62 -148 -127 -53 -78 -97 -208 -126 -372
-2 -14 -9 -46 -15 -72 -17 -72 -33 -371 -35 -658 l-2 -195 -37 -76 c-49 -101
-75 -177 -93 -274 -18 -101 -35 -165 -43 -165 -3 0 -49 16 -101 35 -122 46
-180 46 -226 1 -24 -25 -31 -40 -32 -77 -2 -38 3 -50 25 -71 26 -24 132 -75
193 -93 14 -4 51 -21 83 -37 48 -24 58 -33 55 -51 -3 -22 -6 -22 -161 -23
-175 -1 -199 -7 -214 -57 -24 -79 7 -140 71 -141 20 -1 36 -3 36 -6 0 -3 67
-4 149 -3 120 1 151 -2 155 -13 6 -15 6 -15 -174 -105 -127 -65 -141 -74 -159
-106 -21 -40 5 -120 46 -141 10 -5 47 -8 83 -7 62 1 124 25 262 96 30 15 37
11 76 -49 20 -31 50 -75 66 -97 43 -59 223 -233 260 -252 17 -9 33 -19 36 -23
15 -22 252 -148 310 -165 14 -4 30 -11 35 -15 28 -20 211 -70 430 -116 115
-24 816 -23 855 1 4 3 24 7 44 11 149 23 546 151 546 175 0 5 7 9 16 9 15 0
218 114 240 135 6 5 26 21 44 35 19 14 50 41 71 61 21 20 41 38 46 40 7 4 62
64 108 120 11 13 39 51 63 85 l42 60 113 -54 c97 -48 121 -56 177 -57 105 -3
141 28 134 114 -4 48 -31 78 -94 107 -50 23 -78 37 -131 66 -26 14 -61 30 -79
36 -26 10 -30 14 -21 30 9 17 24 19 176 19 151 0 168 1 193 20 23 17 27 28 30
76 2 47 -2 60 -22 84 l-24 28 -156 0 c-96 0 -156 4 -157 10 -1 6 -2 17 -3 25
-1 15 103 82 115 74 8 -4 65 19 153 62 55 27 64 37 73 84 2 13 6 26 8 29 10 9
-37 80 -57 87 -55 17 -112 11 -205 -21 -52 -18 -96 -28 -99 -23 -3 5 -8 24
-10 41 -6 41 -32 156 -51 227 -14 54 -32 99 -76 190 -19 39 -22 64 -23 185 -2
148 -11 353 -20 445 -3 30 -7 102 -10 160 -6 121 -7 125 -28 206 -8 33 -17 69
-19 80 -15 79 -24 108 -52 173 -18 40 -39 81 -46 90 -8 9 -24 30 -36 46 -11
17 -46 45 -77 64 -49 29 -65 33 -138 36 -117 4 -197 -23 -308 -104 -55 -40
-184 -164 -225 -216 -16 -21 -40 -50 -52 -64 -24 -29 -89 -110 -101 -127 -4
-5 -11 -17 -17 -25 -5 -9 -41 -62 -79 -119 -37 -57 -73 -114 -79 -127 -10 -22
-20 -28 -42 -23 -41 8 -269 11 -469 7 -69 -2 -80 0 -90 18 -19 33 -104 169
-113 180 -4 6 -21 30 -38 55 -16 25 -32 47 -35 50 -3 3 -21 25 -40 50 -172
224 -307 348 -446 411 -91 41 -214 49 -284 18z m1111 -1067 c0 -9 2 -30 4 -47
1 -16 6 -64 10 -105 3 -41 8 -86 11 -100 2 -14 6 -56 10 -95 3 -38 10 -74 15
-79 5 -6 35 16 74 53 72 70 63 69 124 12 12 -11 16 -11 25 1 6 8 33 27 59 43
l49 28 26 -30 c45 -49 107 -125 110 -134 8 -21 32 -7 33 19 0 15 2 43 4 62 4
36 14 159 15 173 0 8 100 0 109 -8 7 -8 0 -245 -13 -414 -15 -194 -49 -293
-123 -363 -36 -33 -163 -118 -178 -118 -6 0 -19 19 -29 43 -10 23 -25 57 -34
75 -13 30 -11 47 6 47 22 1 156 82 171 104 19 27 37 76 45 125 6 35 -11 61
-128 191 -20 22 -52 60 -72 85 l-35 46 -84 -81 c-47 -45 -85 -87 -85 -94 0 -6
10 -22 23 -35 12 -13 31 -34 42 -47 11 -13 46 -54 78 -92 31 -37 57 -72 57
-78 0 -15 -63 -118 -72 -119 -4 0 -41 43 -83 95 -68 86 -101 116 -90 83 5 -17
13 -77 21 -162 6 -65 5 -69 -12 -61 -11 4 -44 16 -74 27 -30 11 -59 23 -64 28
-5 5 -10 102 -11 217 -2 114 -6 226 -9 248 -2 22 -8 78 -11 125 -3 47 -8 101
-10 120 -2 19 -7 60 -10 90 -3 30 -7 67 -9 83 -4 31 3 37 48 47 54 11 66 9 67
-8z m-187 -3 c2 -2 6 -25 9 -51 6 -54 -2 -63 -52 -67 -19 -2 -44 -7 -56 -11
-38 -14 -48 2 -40 66 3 32 8 61 11 65 4 8 120 6 128 -2z m-342 -86 c25 -75 49
-142 138 -393 23 -63 52 -149 66 -190 14 -41 30 -85 36 -98 7 -14 8 -26 2 -32
-12 -11 -157 -59 -166 -54 -3 2 -23 75 -43 162 -54 228 -55 233 -68 237 -33
12 -96 13 -105 2 -5 -7 -14 -43 -20 -81 -10 -62 -25 -91 -42 -81 -3 2 -28 6
-54 9 -27 3 -51 8 -54 10 -2 3 14 79 37 169 52 213 55 234 30 248 -11 5 -17
14 -14 19 3 4 8 37 11 72 3 34 8 66 10 70 3 5 51 8 107 8 l103 0 26 -77z m354
-98 c2 -11 6 -87 10 -170 3 -82 7 -165 8 -183 1 -18 -2 -36 -8 -40 -9 -7 -55
-8 -139 -3 -16 1 -17 15 -13 199 2 108 4 200 5 204 1 8 54 16 100 14 26 -1 35
-6 37 -21z m1202 -77 c76 -47 134 -185 136 -322 0 -93 -14 -143 -52 -184 -46
-49 -77 -62 -154 -64 -138 -4 -228 132 -215 328 6 96 30 157 84 211 62 62 132
73 201 31z m-1528 -814 c41 -7 49 -17 44 -53 -2 -14 -6 -44 -8 -66 l-3 -40
-44 1 c-24 0 -75 4 -114 8 -127 12 -123 -10 18 -126 120 -98 151 -129 183
-183 98 -167 -59 -313 -377 -348 -25 -3 -51 -2 -58 3 -18 10 -16 201 2 212 6
4 53 8 102 9 109 1 134 5 156 25 55 49 2 139 -146 249 -155 115 -197 192 -145
265 38 53 70 62 220 56 74 -3 151 -8 170 -12z m316 -156 c0 -65 3 -120 5 -122
3 -3 24 0 47 6 42 10 78 5 68 -10 -3 -5 -7 -33 -10 -62 -3 -30 -9 -57 -13 -61
-5 -5 -26 -11 -48 -15 -22 -3 -42 -8 -44 -10 -9 -8 0 -112 14 -159 8 -27 30
-77 50 -110 39 -64 39 -83 5 -124 l-21 -24 -30 29 c-52 49 -108 128 -125 175
-8 24 -18 76 -20 114 -7 93 -8 95 -44 91 -37 -4 -47 8 -53 62 -4 44 -1 47 56
56 9 1 20 5 24 9 4 4 7 65 7 134 1 127 1 127 26 133 14 4 43 6 65 6 l40 -1 1
-117z m-1689 -44 c0 -8 -4 -14 -9 -14 -5 0 -6 -5 -2 -12 4 -7 3 -8 -5 -4 -6 4
-8 12 -5 18 4 6 1 8 -7 6 -8 -3 -13 -11 -11 -17 1 -7 -2 -10 -8 -6 -12 7 -10
37 4 46 13 10 43 -1 43 -17z m2632 10 c24 -17 60 -86 61 -116 0 -16 -44 -50
-109 -85 -30 -17 -28 -18 -46 21 -20 41 -34 48 -66 32 -18 -8 -24 -19 -23 -41
3 -79 15 -254 20 -282 4 -28 2 -33 -19 -38 -13 -4 -46 -5 -73 -3 l-49 3 2 35
c2 19 4 134 6 255 l3 220 42 3 c40 3 43 1 53 -28 l11 -30 35 21 c35 22 98 48
118 49 6 0 21 -7 34 -16z m-494 -35 c110 -76 170 -340 104 -460 -35 -64 -91
-98 -165 -103 -95 -7 -156 33 -201 132 -43 93 -40 249 8 343 21 42 91 106 123
113 40 8 97 -2 131 -25z m842 -99 c51 -37 82 -146 67 -228 l-7 -34 -116 7
c-64 3 -128 8 -142 11 -37 6 -46 -21 -13 -42 19 -13 39 -15 84 -11 36 3 60 1
62 -5 7 -21 -18 -119 -32 -128 -19 -13 -122 -13 -153 -1 -14 5 -41 24 -60 41
-70 61 -69 177 2 286 75 114 226 165 308 104z"/>
<path d="M1748 2933 c-8 -38 -13 -71 -11 -75 5 -9 57 -11 65 -3 5 6 -24 130
-33 139 -3 4 -13 -24 -21 -61z"/>
<path d="M3297 2789 c-46 -27 -60 -124 -30 -215 40 -120 128 -84 138 56 7 109
-49 193 -108 159z"/>
<path d="M2516 1743 c-26 -26 -41 -88 -33 -133 3 -14 8 -42 12 -62 8 -41 45
-88 69 -88 43 0 78 87 71 177 -5 67 -27 108 -64 121 -26 9 -33 7 -55 -15z"/>
<path d="M3358 1678 c-42 -15 -34 -28 17 -28 46 0 58 12 28 28 -11 6 -29 6
-45 0z"/>
</g>
</svg>
